<?xml version="1.0" encoding="UTF-8"?>
<svg xmlns="http://www.w3.org/2000/svg" version="1.1" viewBox="0 0 204.04 204.04">
  <defs>
    <style>
      .cls-1 {
        stroke-width: .49px;
      }

      .cls-1, .cls-2, .cls-3 {
        fill: #faaf40;
      }

      .cls-1, .cls-3 {
        stroke: #faaf40;
        stroke-miterlimit: 10;
      }

      .cls-3 {
        stroke-width: .51px;
      }
    </style>
  </defs>
  <!-- Generator: Adobe Illustrator 28.7.1, SVG Export Plug-In . SVG Version: 1.2.0 Build 142)  -->
  <g>
    <g id="Layer_1">
      <g>
        <circle cx="102.02" cy="102.02" r="102.02"/>
        <path class="cls-3" d="M103.55,19.4c-7.96,0-14.51,6.06-15.29,13.82-.85,1.09-1.87,1.56-1.87,1.56l-23.75,14.62c-2.03,1.48-4.05,2.02-5.76,2.1-1.93-.87-4.07-1.36-6.32-1.36-8.49,0-15.37,6.88-15.37,15.37s6.88,15.37,15.37,15.37,15.37-6.88,15.37-15.37c0-1.65-.26-3.24-.75-4.73l24.16-14.94c.97-.68,1.84-.95,2.59-1.01,2.82,3.25,6.97,5.31,11.61,5.31,8.49,0,15.37-6.88,15.37-15.37s-6.88-15.37-15.37-15.37ZM50.56,72.07c-3.62,0-6.56-2.94-6.56-6.56s2.94-6.56,6.56-6.56,6.56,2.94,6.56,6.56-2.94,6.56-6.56,6.56ZM103.55,41.33c-3.62,0-6.56-2.94-6.56-6.56s2.94-6.56,6.56-6.56,6.56,2.94,6.56,6.56-2.94,6.56-6.56,6.56Z"/>
        <path class="cls-1" d="M40.12,75.29v48.32s-.06,2.12-4.19,4.77c-5.84,3.75-26.43,16.7-26.43,16.7l5.15,9.65,33.6-21c-.32.15,5.35-2.2,4.2-10.12l.47-43.38-12.81-4.93Z"/>
        <path class="cls-1" d="M160.76,119.59l.18-42.62c-1.04-3.98,3.18-6.09,3.18-6.09l27.87-17.02-6.15-9.78-31.14,19.58c-5.97,2.61-5.5,11.47-5.5,11.47l-.28,44.72c-4.38,2.06-7.6,6.25-8.27,11.27-.84,1.01-1.82,1.42-1.82,1.42l-23.04,13.15c-1.97,1.34-3.91,1.79-5.54,1.82-1.81-.89-3.82-1.42-5.96-1.49-8.07-.27-14.83,6.06-15.09,14.13-.27,8.07,6.06,14.83,14.13,15.09,8.07.27,14.83-6.06,15.09-14.13.05-1.57-.15-3.09-.56-4.52l23.43-13.44c.94-.61,1.78-.84,2.5-.87,2.58,3.18,6.46,5.26,10.87,5.41,8.07.27,14.83-6.06,15.09-14.13.21-6.25-3.54-11.71-8.99-13.98ZM103.61,166.87c-3.44-.11-6.14-3-6.03-6.44.11-3.44,3-6.14,6.44-6.03,3.44.11,6.14,3,6.03,6.44-.11,3.44-3,6.14-6.44,6.03ZM154.94,139.32c-3.44-.11-6.14-3-6.03-6.44.11-3.44,3-6.14,6.44-6.03,3.44.11,6.14,3,6.03,6.44-.11,3.44-3,6.14-6.44,6.03Z"/>
        <path class="cls-2" d="M87.16,131.49c5.21-2.79,5.68-8.58,5.68-8.58l-.1-29.94,18.03,28c1.5,2.33,4.81,5.17,10.32,3.1,5.05-1.89,4.78-7.65,4.78-7.65l-.02-37.35c.29-4.82,3.77-6.98,3.77-6.98l11.15-6.58c5.16-3.69,4.05-8.08,4.05-8.08.1-1.95-3.59-3.1-3.59-3.1,0,0-3.79-.26-7.8,2.51l-13.73,8.44c-5.77,3.46-5.44,10.05-5.44,10.05l.05,29.33-18.92-28.53c-13.85-8.02-14.1,8.8-14.1,8.8l-.02,33.54c.42,4.1-1.44,4.7-1.44,4.7,0,0-2.82,1.67-8.25,4.91-.51.29-1.09.75-1.9,1.28-3.8,2.49-5.89,5.7-4.36,8.5,1.52,2.8,5.99,3.32,9.99,1.15"/>
      </g>
    </g>
  </g>
</svg>